{
    "asset": {
        "generator": "Khronos glTF Blender I/O v3.4.50",
        "version": "2.0"
    },
    "scene": 0,
    "scenes": [
        {
            "name": "Scene",
            "nodes": [
                12
            ]
        }
    ],
    "nodes": [
        {
            "mesh": 0,
            "name": "armleft.001",
            "translation": [
                0,
                -0.75,
                -0.1875
            ]
        },
        {
            "children": [
                0
            ],
            "name": "armleft",
            "translation": [
                0,
                0.75,
                0.1875
            ]
        },
        {
            "mesh": 1,
            "name": "armright.001",
            "translation": [
                0,
                -0.75,
                0.1875
            ]
        },
        {
            "children": [
                2
            ],
            "name": "armright",
            "translation": [
                0,
                0.75,
                -0.1875
            ]
        },
        {
            "mesh": 2,
            "name": "head.001"
        },
        {
            "children": [
                4
            ],
            "name": "head"
        },
        {
            "mesh": 3,
            "name": "legleft.001",
            "translation": [
                0,
                -0.375,
                -0.0625
            ]
        },
        {
            "children": [
                6
            ],
            "name": "legleft",
            "translation": [
                0,
                0.375,
                0.0625
            ]
        },
        {
            "mesh": 4,
            "name": "legright.001",
            "translation": [
                0,
                -0.375,
                0.0625
            ]
        },
        {
            "children": [
                8
            ],
            "name": "legright",
            "translation": [
                0,
                0.375,
                -0.0625
            ]
        },
        {
            "mesh": 5,
            "name": "torso.001"
        },
        {
            "children": [
                10
            ],
            "name": "torso"
        },
        {
            "children": [
                1,
                3,
                5,
                7,
                9,
                11
            ],
            "name": "Node_12"
        }
    ],
    "animations": [
        {
            "channels": [
                {
                    "sampler": 0,
                    "target": {
                        "node": 1,
                        "path": "rotation"
                    }
                },
                {
                    "sampler": 1,
                    "target": {
                        "node": 3,
                        "path": "rotation"
                    }
                },
                {
                    "sampler": 2,
                    "target": {
                        "node": 5,
                        "path": "rotation"
                    }
                },
                {
                    "sampler": 3,
                    "target": {
                        "node": 7,
                        "path": "rotation"
                    }
                },
                {
                    "sampler": 4,
                    "target": {
                        "node": 9,
                        "path": "rotation"
                    }
                },
                {
                    "sampler": 5,
                    "target": {
                        "node": 11,
                        "path": "rotation"
                    }
                }
            ],
            "name": "animation.model.new",
            "samplers": [
                {
                    "input": 19,
                    "interpolation": "LINEAR",
                    "output": 20
                },
                {
                    "input": 19,
                    "interpolation": "LINEAR",
                    "output": 21
                },
                {
                    "input": 22,
                    "interpolation": "STEP",
                    "output": 23
                },
                {
                    "input": 19,
                    "interpolation": "LINEAR",
                    "output": 24
                },
                {
                    "input": 19,
                    "interpolation": "LINEAR",
                    "output": 25
                },
                {
                    "input": 22,
                    "interpolation": "STEP",
                    "output": 26
                }
            ]
        }
    ],
    "materials": [
        {
            "alphaCutoff": 0.05000000074505806,
            "alphaMode": "MASK",
            "doubleSided": true,
            "name": "Material_0",
            "pbrMetallicRoughness": {
                "baseColorTexture": {
                    "index": 0
                },
                "metallicFactor": 0
            }
        }
    ],
    "meshes": [
        {
            "name": "Mesh_2",
            "primitives": [
                {
                    "attributes": {
                        "POSITION": 0,
                        "TEXCOORD_0": 1,
                        "NORMAL": 2
                    },
                    "indices": 3,
                    "material": 0
                }
            ]
        },
        {
            "name": "Mesh_1",
            "primitives": [
                {
                    "attributes": {
                        "POSITION": 4,
                        "TEXCOORD_0": 5,
                        "NORMAL": 6
                    },
                    "indices": 3,
                    "material": 0
                }
            ]
        },
        {
            "name": "Mesh_0",
            "primitives": [
                {
                    "attributes": {
                        "POSITION": 7,
                        "TEXCOORD_0": 8,
                        "NORMAL": 9
                    },
                    "indices": 3,
                    "material": 0
                }
            ]
        },
        {
            "name": "Mesh_4",
            "primitives": [
                {
                    "attributes": {
                        "POSITION": 10,
                        "TEXCOORD_0": 11,
                        "NORMAL": 12
                    },
                    "indices": 3,
                    "material": 0
                }
            ]
        },
        {
            "name": "Mesh_3",
            "primitives": [
                {
                    "attributes": {
                        "POSITION": 13,
                        "TEXCOORD_0": 14,
                        "NORMAL": 15
                    },
                    "indices": 3,
                    "material": 0
                }
            ]
        },
        {
            "name": "Mesh_5",
            "primitives": [
                {
                    "attributes": {
                        "POSITION": 16,
                        "TEXCOORD_0": 17,
                        "NORMAL": 18
                    },
                    "indices": 3,
                    "material": 0
                }
            ]
        }
    ],
    "textures": [
        {
            "sampler": 0,
            "source": 0
        }
    ],
    "images": [
        {
            "mimeType": "image/png",
            "name": "mereo",
            "uri": "mereo.png"
        }
    ],
    "accessors": [
        {
            "bufferView": 0,
            "componentType": 5126,
            "count": 24,
            "max": [
                0.0625,
                0.75,
                0.25
            ],
            "min": [
                -0.0625,
                0.375,
                0.125
            ],
            "type": "VEC3"
        },
        {
            "bufferView": 1,
            "componentType": 5126,
            "count": 24,
            "type": "VEC2"
        },
        {
            "bufferView": 2,
            "componentType": 5126,
            "count": 24,
            "type": "VEC3"
        },
        {
            "bufferView": 3,
            "componentType": 5123,
            "count": 36,
            "type": "SCALAR"
        },
        {
            "bufferView": 4,
            "componentType": 5126,
            "count": 24,
            "max": [
                0.0625,
                0.75,
                -0.125
            ],
            "min": [
                -0.0625,
                0.375,
                -0.25
            ],
            "type": "VEC3"
        },
        {
            "bufferView": 5,
            "componentType": 5126,
            "count": 24,
            "type": "VEC2"
        },
        {
            "bufferView": 6,
            "componentType": 5126,
            "count": 24,
            "type": "VEC3"
        },
        {
            "bufferView": 7,
            "componentType": 5126,
            "count": 24,
            "max": [
                0.125,
                1,
                0.125
            ],
            "min": [
                -0.125,
                0.75,
                -0.125
            ],
            "type": "VEC3"
        },
        {
            "bufferView": 8,
            "componentType": 5126,
            "count": 24,
            "type": "VEC2"
        },
        {
            "bufferView": 9,
            "componentType": 5126,
            "count": 24,
            "type": "VEC3"
        },
        {
            "bufferView": 10,
            "componentType": 5126,
            "count": 24,
            "max": [
                0.0625,
                0.375,
                0.125
            ],
            "min": [
                -0.0625,
                0,
                0
            ],
            "type": "VEC3"
        },
        {
            "bufferView": 11,
            "componentType": 5126,
            "count": 24,
            "type": "VEC2"
        },
        {
            "bufferView": 12,
            "componentType": 5126,
            "count": 24,
            "type": "VEC3"
        },
        {
            "bufferView": 13,
            "componentType": 5126,
            "count": 24,
            "max": [
                0.0625,
                0.375,
                0
            ],
            "min": [
                -0.0625,
                0,
                -0.125
            ],
            "type": "VEC3"
        },
        {
            "bufferView": 14,
            "componentType": 5126,
            "count": 24,
            "type": "VEC2"
        },
        {
            "bufferView": 15,
            "componentType": 5126,
            "count": 24,
            "type": "VEC3"
        },
        {
            "bufferView": 16,
            "componentType": 5126,
            "count": 24,
            "max": [
                0.0625,
                0.75,
                0.125
            ],
            "min": [
                -0.0625,
                0.375,
                -0.125
            ],
            "type": "VEC3"
        },
        {
            "bufferView": 17,
            "componentType": 5126,
            "count": 24,
            "type": "VEC2"
        },
        {
            "bufferView": 18,
            "componentType": 5126,
            "count": 24,
            "type": "VEC3"
        },
        {
            "bufferView": 19,
            "componentType": 5126,
            "count": 47,
            "max": [
                1.9166666666666667
            ],
            "min": [
                0
            ],
            "type": "SCALAR"
        },
        {
            "bufferView": 20,
            "componentType": 5126,
            "count": 47,
            "type": "VEC4"
        },
        {
            "bufferView": 21,
            "componentType": 5126,
            "count": 47,
            "type": "VEC4"
        },
        {
            "bufferView": 22,
            "componentType": 5126,
            "count": 1,
            "max": [
                0
            ],
            "min": [
                0
            ],
            "type": "SCALAR"
        },
        {
            "bufferView": 23,
            "componentType": 5126,
            "count": 1,
            "type": "VEC4"
        },
        {
            "bufferView": 24,
            "componentType": 5126,
            "count": 47,
            "type": "VEC4"
        },
        {
            "bufferView": 25,
            "componentType": 5126,
            "count": 47,
            "type": "VEC4"
        },
        {
            "bufferView": 26,
            "componentType": 5126,
            "count": 1,
            "type": "VEC4"
        }
    ],
    "bufferViews": [
        {
            "buffer": 0,
            "byteLength": 288,
            "byteOffset": 0,
            "target": 34962
        },
        {
            "buffer": 0,
            "byteLength": 192,
            "byteOffset": 288,
            "target": 34962
        },
        {
            "buffer": 0,
            "byteLength": 288,
            "byteOffset": 480,
            "target": 34962
        },
        {
            "buffer": 0,
            "byteLength": 72,
            "byteOffset": 768,
            "target": 34963
        },
        {
            "buffer": 0,
            "byteLength": 288,
            "byteOffset": 840,
            "target": 34962
        },
        {
            "buffer": 0,
            "byteLength": 192,
            "byteOffset": 1128,
            "target": 34962
        },
        {
            "buffer": 0,
            "byteLength": 288,
            "byteOffset": 1320,
            "target": 34962
        },
        {
            "buffer": 0,
            "byteLength": 288,
            "byteOffset": 1608,
            "target": 34962
        },
        {
            "buffer": 0,
            "byteLength": 192,
            "byteOffset": 1896,
            "target": 34962
        },
        {
            "buffer": 0,
            "byteLength": 288,
            "byteOffset": 2088,
            "target": 34962
        },
        {
            "buffer": 0,
            "byteLength": 288,
            "byteOffset": 2376,
            "target": 34962
        },
        {
            "buffer": 0,
            "byteLength": 192,
            "byteOffset": 2664,
            "target": 34962
        },
        {
            "buffer": 0,
            "byteLength": 288,
            "byteOffset": 2856,
            "target": 34962
        },
        {
            "buffer": 0,
            "byteLength": 288,
            "byteOffset": 3144,
            "target": 34962
        },
        {
            "buffer": 0,
            "byteLength": 192,
            "byteOffset": 3432,
            "target": 34962
        },
        {
            "buffer": 0,
            "byteLength": 288,
            "byteOffset": 3624,
            "target": 34962
        },
        {
            "buffer": 0,
            "byteLength": 288,
            "byteOffset": 3912,
            "target": 34962
        },
        {
            "buffer": 0,
            "byteLength": 192,
            "byteOffset": 4200,
            "target": 34962
        },
        {
            "buffer": 0,
            "byteLength": 288,
            "byteOffset": 4392,
            "target": 34962
        },
        {
            "buffer": 0,
            "byteLength": 188,
            "byteOffset": 4680
        },
        {
            "buffer": 0,
            "byteLength": 752,
            "byteOffset": 4868
        },
        {
            "buffer": 0,
            "byteLength": 752,
            "byteOffset": 5620
        },
        {
            "buffer": 0,
            "byteLength": 4,
            "byteOffset": 6372
        },
        {
            "buffer": 0,
            "byteLength": 16,
            "byteOffset": 6376
        },
        {
            "buffer": 0,
            "byteLength": 752,
            "byteOffset": 6392
        },
        {
            "buffer": 0,
            "byteLength": 752,
            "byteOffset": 7144
        },
        {
            "buffer": 0,
            "byteLength": 16,
            "byteOffset": 7896
        }
    ],
    "samplers": [
        {
            "magFilter": 9728,
            "minFilter": 9984,
            "wrapS": 33071,
            "wrapT": 33071
        }
    ],
    "buffers": [
        {
            "byteLength": 7912,
            "uri": "mereo.bin"
        }
    ]
}