{
	"asset": {
		"generator": "Khronos glTF Blender I/O v3.5.30",
		"version": "2.0"
	},
	"scene": 0,
	"scenes": [
		{
			"name": "Scene",
			"nodes": [
				20
			]
		}
	],
	"nodes": [
		{
			"name": "bone"
		},
		{
			"name": "bone2"
		},
		{
			"mesh": 0,
			"name": "depth0"
		},
		{
			"mesh": 1,
			"name": "depth1",
			"translation": [
				0.25,
				0,
				0
			]
		},
		{
			"children": [
				0,
				1,
				2,
				3
			],
			"name": "head"
		},
		{
			"mesh": 2,
			"name": "depth0.002",
			"translation": [
				0,
				-0.75,
				0.1875
			]
		},
		{
			"mesh": 3,
			"name": "depth1.002",
			"translation": [
				0.25,
				-0.75,
				0.1875
			]
		},
		{
			"children": [
				5,
				6
			],
			"name": "leftarm",
			"translation": [
				0,
				0.75,
				-0.1875
			]
		},
		{
			"mesh": 4,
			"name": "depth0.004",
			"translation": [
				0,
				-0.375,
				0.0625
			]
		},
		{
			"mesh": 5,
			"name": "depth1.004",
			"translation": [
				0.25,
				-0.375,
				0.0625
			]
		},
		{
			"children": [
				8,
				9
			],
			"name": "leftleg",
			"translation": [
				0,
				0.375,
				-0.0625
			]
		},
		{
			"mesh": 6,
			"name": "depth0.003",
			"translation": [
				0,
				-0.75,
				-0.19374999403953552
			]
		},
		{
			"mesh": 7,
			"name": "depth1.003",
			"translation": [
				0.25,
				-0.75,
				-0.19374999403953552
			]
		},
		{
			"children": [
				11,
				12
			],
			"name": "rightarm",
			"translation": [
				0,
				0.75,
				0.19374999403953552
			]
		},
		{
			"mesh": 8,
			"name": "depth0.005",
			"translation": [
				0,
				-0.375,
				-0.0625
			]
		},
		{
			"mesh": 9,
			"name": "depth1.005",
			"translation": [
				0.25,
				-0.375,
				-0.0625
			]
		},
		{
			"children": [
				14,
				15
			],
			"name": "rightleg",
			"translation": [
				0,
				0.375,
				0.0625
			]
		},
		{
			"mesh": 10,
			"name": "depth0.001",
			"translation": [
				0,
				-0.75,
				0
			]
		},
		{
			"mesh": 11,
			"name": "depth1.001",
			"translation": [
				0.25,
				-0.75,
				0
			]
		},
		{
			"children": [
				17,
				18
			],
			"name": "torso",
			"translation": [
				0,
				0.75,
				0
			]
		},
		{
			"children": [
				4,
				7,
				10,
				13,
				16,
				19
			],
			"name": "Node_20"
		}
	],
	"animations": [
		{
			"channels": [
				{
					"sampler": 0,
					"target": {
						"node": 4,
						"path": "rotation"
					}
				},
				{
					"sampler": 1,
					"target": {
						"node": 7,
						"path": "rotation"
					}
				},
				{
					"sampler": 2,
					"target": {
						"node": 10,
						"path": "rotation"
					}
				},
				{
					"sampler": 3,
					"target": {
						"node": 13,
						"path": "rotation"
					}
				},
				{
					"sampler": 4,
					"target": {
						"node": 16,
						"path": "rotation"
					}
				},
				{
					"sampler": 5,
					"target": {
						"node": 19,
						"path": "rotation"
					}
				}
			],
			"name": "walk",
			"samplers": [
				{
					"input": 37,
					"interpolation": "STEP",
					"output": 38
				},
				{
					"input": 39,
					"interpolation": "LINEAR",
					"output": 40
				},
				{
					"input": 39,
					"interpolation": "LINEAR",
					"output": 41
				},
				{
					"input": 39,
					"interpolation": "LINEAR",
					"output": 42
				},
				{
					"input": 39,
					"interpolation": "LINEAR",
					"output": 43
				},
				{
					"input": 37,
					"interpolation": "STEP",
					"output": 44
				}
			]
		}
	],
	"materials": [
		{
			"alphaCutoff": 0.05000000074505806,
			"alphaMode": "MASK",
			"doubleSided": true,
			"name": "Material_0",
			"pbrMetallicRoughness": {
				"baseColorTexture": {
					"index": 0
				},
				"metallicFactor": 0
			}
		}
	],
	"meshes": [
		{
			"name": "Mesh_0",
			"primitives": [
				{
					"attributes": {
						"POSITION": 0,
						"TEXCOORD_0": 1,
						"NORMAL": 2
					},
					"indices": 3,
					"material": 0
				}
			]
		},
		{
			"name": "Mesh_1",
			"primitives": [
				{
					"attributes": {
						"POSITION": 4,
						"TEXCOORD_0": 5,
						"NORMAL": 6
					},
					"indices": 3,
					"material": 0
				}
			]
		},
		{
			"name": "Mesh_4",
			"primitives": [
				{
					"attributes": {
						"POSITION": 7,
						"TEXCOORD_0": 8,
						"NORMAL": 9
					},
					"indices": 3,
					"material": 0
				}
			]
		},
		{
			"name": "Mesh_5",
			"primitives": [
				{
					"attributes": {
						"POSITION": 10,
						"TEXCOORD_0": 11,
						"NORMAL": 12
					},
					"indices": 3,
					"material": 0
				}
			]
		},
		{
			"name": "Mesh_8",
			"primitives": [
				{
					"attributes": {
						"POSITION": 13,
						"TEXCOORD_0": 14,
						"NORMAL": 15
					},
					"indices": 3,
					"material": 0
				}
			]
		},
		{
			"name": "Mesh_9",
			"primitives": [
				{
					"attributes": {
						"POSITION": 16,
						"TEXCOORD_0": 17,
						"NORMAL": 18
					},
					"indices": 3,
					"material": 0
				}
			]
		},
		{
			"name": "Mesh_6",
			"primitives": [
				{
					"attributes": {
						"POSITION": 19,
						"TEXCOORD_0": 20,
						"NORMAL": 21
					},
					"indices": 3,
					"material": 0
				}
			]
		},
		{
			"name": "Mesh_7",
			"primitives": [
				{
					"attributes": {
						"POSITION": 22,
						"TEXCOORD_0": 23,
						"NORMAL": 24
					},
					"indices": 3,
					"material": 0
				}
			]
		},
		{
			"name": "Mesh_10",
			"primitives": [
				{
					"attributes": {
						"POSITION": 25,
						"TEXCOORD_0": 26,
						"NORMAL": 27
					},
					"indices": 3,
					"material": 0
				}
			]
		},
		{
			"name": "Mesh_11",
			"primitives": [
				{
					"attributes": {
						"POSITION": 28,
						"TEXCOORD_0": 29,
						"NORMAL": 30
					},
					"indices": 3,
					"material": 0
				}
			]
		},
		{
			"name": "Mesh_2",
			"primitives": [
				{
					"attributes": {
						"POSITION": 31,
						"TEXCOORD_0": 32,
						"NORMAL": 33
					},
					"indices": 3,
					"material": 0
				}
			]
		},
		{
			"name": "Mesh_3",
			"primitives": [
				{
					"attributes": {
						"POSITION": 34,
						"TEXCOORD_0": 35,
						"NORMAL": 36
					},
					"indices": 3,
					"material": 0
				}
			]
		}
	],
	"textures": [
		{
			"sampler": 0,
			"source": 0
		}
	],
	"images": [
		{
			"mimeType": "image/png",
			"name": "mereo",
			"uri": "mereo.png"
		}
	],
	"accessors": [
		{
			"bufferView": 0,
			"componentType": 5126,
			"count": 24,
			"max": [
				0.125,
				1,
				0.125
			],
			"min": [
				-0.125,
				0.75,
				-0.125
			],
			"type": "VEC3"
		},
		{
			"bufferView": 1,
			"componentType": 5126,
			"count": 24,
			"type": "VEC2"
		},
		{
			"bufferView": 2,
			"componentType": 5126,
			"count": 24,
			"type": "VEC3"
		},
		{
			"bufferView": 3,
			"componentType": 5123,
			"count": 36,
			"type": "SCALAR"
		},
		{
			"bufferView": 4,
			"componentType": 5126,
			"count": 24,
			"max": [
				-0.11874999850988388,
				1.006250023841858,
				0.13124999403953552
			],
			"min": [
				-0.3812499940395355,
				0.7437499761581421,
				-0.13124999403953552
			],
			"type": "VEC3"
		},
		{
			"bufferView": 5,
			"componentType": 5126,
			"count": 24,
			"type": "VEC2"
		},
		{
			"bufferView": 6,
			"componentType": 5126,
			"count": 24,
			"type": "VEC3"
		},
		{
			"bufferView": 7,
			"componentType": 5126,
			"count": 24,
			"max": [
				0.0625,
				0.75,
				-0.125
			],
			"min": [
				-0.0625,
				0.375,
				-0.25
			],
			"type": "VEC3"
		},
		{
			"bufferView": 8,
			"componentType": 5126,
			"count": 24,
			"type": "VEC2"
		},
		{
			"bufferView": 9,
			"componentType": 5126,
			"count": 24,
			"type": "VEC3"
		},
		{
			"bufferView": 10,
			"componentType": 5126,
			"count": 24,
			"max": [
				-0.18125000596046448,
				0.7562500238418579,
				-0.11874999850988388
			],
			"min": [
				-0.3187499940395355,
				0.3687500059604645,
				-0.2562499940395355
			],
			"type": "VEC3"
		},
		{
			"bufferView": 11,
			"componentType": 5126,
			"count": 24,
			"type": "VEC2"
		},
		{
			"bufferView": 12,
			"componentType": 5126,
			"count": 24,
			"type": "VEC3"
		},
		{
			"bufferView": 13,
			"componentType": 5126,
			"count": 24,
			"max": [
				0.0625,
				0.375,
				0
			],
			"min": [
				-0.0625,
				0,
				-0.125
			],
			"type": "VEC3"
		},
		{
			"bufferView": 14,
			"componentType": 5126,
			"count": 24,
			"type": "VEC2"
		},
		{
			"bufferView": 15,
			"componentType": 5126,
			"count": 24,
			"type": "VEC3"
		},
		{
			"bufferView": 16,
			"componentType": 5126,
			"count": 24,
			"max": [
				-0.18125000596046448,
				0.3812499940395355,
				0.0062500000931322575
			],
			"min": [
				-0.3187499940395355,
				-0.0062500000931322575,
				-0.13124999403953552
			],
			"type": "VEC3"
		},
		{
			"bufferView": 17,
			"componentType": 5126,
			"count": 24,
			"type": "VEC2"
		},
		{
			"bufferView": 18,
			"componentType": 5126,
			"count": 24,
			"type": "VEC3"
		},
		{
			"bufferView": 19,
			"componentType": 5126,
			"count": 24,
			"max": [
				0.0625,
				0.75,
				0.25
			],
			"min": [
				-0.0625,
				0.375,
				0.125
			],
			"type": "VEC3"
		},
		{
			"bufferView": 20,
			"componentType": 5126,
			"count": 24,
			"type": "VEC2"
		},
		{
			"bufferView": 21,
			"componentType": 5126,
			"count": 24,
			"type": "VEC3"
		},
		{
			"bufferView": 22,
			"componentType": 5126,
			"count": 24,
			"max": [
				-0.18125000596046448,
				0.7562500238418579,
				0.26875001192092896
			],
			"min": [
				-0.3187499940395355,
				0.3687500059604645,
				0.13124999403953552
			],
			"type": "VEC3"
		},
		{
			"bufferView": 23,
			"componentType": 5126,
			"count": 24,
			"type": "VEC2"
		},
		{
			"bufferView": 24,
			"componentType": 5126,
			"count": 24,
			"type": "VEC3"
		},
		{
			"bufferView": 25,
			"componentType": 5126,
			"count": 24,
			"max": [
				0.0625,
				0.375,
				0.125
			],
			"min": [
				-0.0625,
				0,
				0
			],
			"type": "VEC3"
		},
		{
			"bufferView": 26,
			"componentType": 5126,
			"count": 24,
			"type": "VEC2"
		},
		{
			"bufferView": 27,
			"componentType": 5126,
			"count": 24,
			"type": "VEC3"
		},
		{
			"bufferView": 28,
			"componentType": 5126,
			"count": 24,
			"max": [
				-0.18125000596046448,
				0.3812499940395355,
				0.13124999403953552
			],
			"min": [
				-0.3187499940395355,
				-0.0062500000931322575,
				-0.0062500000931322575
			],
			"type": "VEC3"
		},
		{
			"bufferView": 29,
			"componentType": 5126,
			"count": 24,
			"type": "VEC2"
		},
		{
			"bufferView": 30,
			"componentType": 5126,
			"count": 24,
			"type": "VEC3"
		},
		{
			"bufferView": 31,
			"componentType": 5126,
			"count": 24,
			"max": [
				0.0625,
				0.75,
				0.125
			],
			"min": [
				-0.0625,
				0.375,
				-0.125
			],
			"type": "VEC3"
		},
		{
			"bufferView": 32,
			"componentType": 5126,
			"count": 24,
			"type": "VEC2"
		},
		{
			"bufferView": 33,
			"componentType": 5126,
			"count": 24,
			"type": "VEC3"
		},
		{
			"bufferView": 34,
			"componentType": 5126,
			"count": 24,
			"max": [
				-0.18125000596046448,
				0.7562500238418579,
				0.13124999403953552
			],
			"min": [
				-0.3187499940395355,
				0.3687500059604645,
				-0.13124999403953552
			],
			"type": "VEC3"
		},
		{
			"bufferView": 35,
			"componentType": 5126,
			"count": 24,
			"type": "VEC2"
		},
		{
			"bufferView": 36,
			"componentType": 5126,
			"count": 24,
			"type": "VEC3"
		},
		{
			"bufferView": 37,
			"componentType": 5126,
			"count": 1,
			"max": [
				0
			],
			"min": [
				0
			],
			"type": "SCALAR"
		},
		{
			"bufferView": 38,
			"componentType": 5126,
			"count": 1,
			"type": "VEC4"
		},
		{
			"bufferView": 39,
			"componentType": 5126,
			"count": 43,
			"max": [
				1.75
			],
			"min": [
				0
			],
			"type": "SCALAR"
		},
		{
			"bufferView": 40,
			"componentType": 5126,
			"count": 43,
			"type": "VEC4"
		},
		{
			"bufferView": 41,
			"componentType": 5126,
			"count": 43,
			"type": "VEC4"
		},
		{
			"bufferView": 42,
			"componentType": 5126,
			"count": 43,
			"type": "VEC4"
		},
		{
			"bufferView": 43,
			"componentType": 5126,
			"count": 43,
			"type": "VEC4"
		},
		{
			"bufferView": 44,
			"componentType": 5126,
			"count": 1,
			"type": "VEC4"
		}
	],
	"bufferViews": [
		{
			"buffer": 0,
			"byteLength": 288,
			"byteOffset": 0,
			"target": 34962
		},
		{
			"buffer": 0,
			"byteLength": 192,
			"byteOffset": 288,
			"target": 34962
		},
		{
			"buffer": 0,
			"byteLength": 288,
			"byteOffset": 480,
			"target": 34962
		},
		{
			"buffer": 0,
			"byteLength": 72,
			"byteOffset": 768,
			"target": 34963
		},
		{
			"buffer": 0,
			"byteLength": 288,
			"byteOffset": 840,
			"target": 34962
		},
		{
			"buffer": 0,
			"byteLength": 192,
			"byteOffset": 1128,
			"target": 34962
		},
		{
			"buffer": 0,
			"byteLength": 288,
			"byteOffset": 1320,
			"target": 34962
		},
		{
			"buffer": 0,
			"byteLength": 288,
			"byteOffset": 1608,
			"target": 34962
		},
		{
			"buffer": 0,
			"byteLength": 192,
			"byteOffset": 1896,
			"target": 34962
		},
		{
			"buffer": 0,
			"byteLength": 288,
			"byteOffset": 2088,
			"target": 34962
		},
		{
			"buffer": 0,
			"byteLength": 288,
			"byteOffset": 2376,
			"target": 34962
		},
		{
			"buffer": 0,
			"byteLength": 192,
			"byteOffset": 2664,
			"target": 34962
		},
		{
			"buffer": 0,
			"byteLength": 288,
			"byteOffset": 2856,
			"target": 34962
		},
		{
			"buffer": 0,
			"byteLength": 288,
			"byteOffset": 3144,
			"target": 34962
		},
		{
			"buffer": 0,
			"byteLength": 192,
			"byteOffset": 3432,
			"target": 34962
		},
		{
			"buffer": 0,
			"byteLength": 288,
			"byteOffset": 3624,
			"target": 34962
		},
		{
			"buffer": 0,
			"byteLength": 288,
			"byteOffset": 3912,
			"target": 34962
		},
		{
			"buffer": 0,
			"byteLength": 192,
			"byteOffset": 4200,
			"target": 34962
		},
		{
			"buffer": 0,
			"byteLength": 288,
			"byteOffset": 4392,
			"target": 34962
		},
		{
			"buffer": 0,
			"byteLength": 288,
			"byteOffset": 4680,
			"target": 34962
		},
		{
			"buffer": 0,
			"byteLength": 192,
			"byteOffset": 4968,
			"target": 34962
		},
		{
			"buffer": 0,
			"byteLength": 288,
			"byteOffset": 5160,
			"target": 34962
		},
		{
			"buffer": 0,
			"byteLength": 288,
			"byteOffset": 5448,
			"target": 34962
		},
		{
			"buffer": 0,
			"byteLength": 192,
			"byteOffset": 5736,
			"target": 34962
		},
		{
			"buffer": 0,
			"byteLength": 288,
			"byteOffset": 5928,
			"target": 34962
		},
		{
			"buffer": 0,
			"byteLength": 288,
			"byteOffset": 6216,
			"target": 34962
		},
		{
			"buffer": 0,
			"byteLength": 192,
			"byteOffset": 6504,
			"target": 34962
		},
		{
			"buffer": 0,
			"byteLength": 288,
			"byteOffset": 6696,
			"target": 34962
		},
		{
			"buffer": 0,
			"byteLength": 288,
			"byteOffset": 6984,
			"target": 34962
		},
		{
			"buffer": 0,
			"byteLength": 192,
			"byteOffset": 7272,
			"target": 34962
		},
		{
			"buffer": 0,
			"byteLength": 288,
			"byteOffset": 7464,
			"target": 34962
		},
		{
			"buffer": 0,
			"byteLength": 288,
			"byteOffset": 7752,
			"target": 34962
		},
		{
			"buffer": 0,
			"byteLength": 192,
			"byteOffset": 8040,
			"target": 34962
		},
		{
			"buffer": 0,
			"byteLength": 288,
			"byteOffset": 8232,
			"target": 34962
		},
		{
			"buffer": 0,
			"byteLength": 288,
			"byteOffset": 8520,
			"target": 34962
		},
		{
			"buffer": 0,
			"byteLength": 192,
			"byteOffset": 8808,
			"target": 34962
		},
		{
			"buffer": 0,
			"byteLength": 288,
			"byteOffset": 9000,
			"target": 34962
		},
		{
			"buffer": 0,
			"byteLength": 4,
			"byteOffset": 9288
		},
		{
			"buffer": 0,
			"byteLength": 16,
			"byteOffset": 9292
		},
		{
			"buffer": 0,
			"byteLength": 172,
			"byteOffset": 9308
		},
		{
			"buffer": 0,
			"byteLength": 688,
			"byteOffset": 9480
		},
		{
			"buffer": 0,
			"byteLength": 688,
			"byteOffset": 10168
		},
		{
			"buffer": 0,
			"byteLength": 688,
			"byteOffset": 10856
		},
		{
			"buffer": 0,
			"byteLength": 688,
			"byteOffset": 11544
		},
		{
			"buffer": 0,
			"byteLength": 16,
			"byteOffset": 12232
		}
	],
	"samplers": [
		{
			"magFilter": 9728,
			"minFilter": 9984,
			"wrapS": 33071,
			"wrapT": 33071
		}
	],
	"buffers": [
		{
			"byteLength": 12248,
			"uri": "mereo.bin"
		}
	]
}