{
    "asset": {
        "generator": "Khronos glTF Blender I/O v3.4.50",
        "version": "2.0"
    },
    "scene": 0,
    "scenes": [
        {
            "name": "Scene",
            "nodes": [
                6
            ]
        }
    ],
    "nodes": [
        {
            "mesh": 0,
            "name": "cube"
        },
        {
            "mesh": 1,
            "name": "hornLeft"
        },
        {
            "mesh": 2,
            "name": "hornRight"
        },
        {
            "children": [
                0,
                1,
                2
            ],
            "name": "Inside",
            "translation": [
                0,
                -0.0625,
                0.25
            ]
        },
        {
            "mesh": 3,
            "name": "cube.001"
        },
        {
            "children": [
                4
            ],
            "name": "Outside"
        },
        {
            "children": [
                3,
                5
            ],
            "name": "Node_6"
        }
    ],
    "materials": [
        {
            "alphaCutoff": 0.05000000074505806,
            "alphaMode": "MASK",
            "doubleSided": true,
            "name": "Material_0",
            "pbrMetallicRoughness": {
                "baseColorTexture": {
                    "index": 0
                },
                "metallicFactor": 0
            }
        },
        {
            "alphaMode": "BLEND",
            "doubleSided": true,
            "name": "Material_1",
            "pbrMetallicRoughness": {
                "baseColorTexture": {
                    "index": 1
                },
                "metallicFactor": 0
            }
        }
    ],
    "meshes": [
        {
            "name": "Mesh_0",
            "primitives": [
                {
                    "attributes": {
                        "POSITION": 0,
                        "TEXCOORD_0": 1,
                        "NORMAL": 2
                    },
                    "indices": 3,
                    "material": 0
                }
            ]
        },
        {
            "name": "Mesh_2",
            "primitives": [
                {
                    "attributes": {
                        "POSITION": 4,
                        "TEXCOORD_0": 5,
                        "NORMAL": 6
                    },
                    "indices": 3,
                    "material": 0
                }
            ]
        },
        {
            "name": "Mesh_1",
            "primitives": [
                {
                    "attributes": {
                        "POSITION": 7,
                        "TEXCOORD_0": 8,
                        "NORMAL": 9
                    },
                    "indices": 3,
                    "material": 0
                }
            ]
        },
        {
            "name": "Mesh_3",
            "primitives": [
                {
                    "attributes": {
                        "POSITION": 10,
                        "TEXCOORD_0": 11,
                        "NORMAL": 12
                    },
                    "indices": 3,
                    "material": 1
                }
            ]
        }
    ],
    "textures": [
        {
            "sampler": 0,
            "source": 0
        },
        {
            "sampler": 0,
            "source": 1
        }
    ],
    "images": [
        {
            "mimeType": "image/png",
            "name": "slime_inside",
            "uri": "slime_inside.png"
        },
        {
            "mimeType": "image/png",
            "name": "slime_outside",
            "uri": "slime_outside.png"
        }
    ],
    "accessors": [
        {
            "bufferView": 0,
            "componentType": 5126,
            "count": 24,
            "max": [
                0.125,
                0.3125,
                -0.125
            ],
            "min": [
                -0.125,
                0.125,
                -0.375
            ],
            "type": "VEC3"
        },
        {
            "bufferView": 1,
            "componentType": 5126,
            "count": 24,
            "type": "VEC2"
        },
        {
            "bufferView": 2,
            "componentType": 5126,
            "count": 24,
            "type": "VEC3"
        },
        {
            "bufferView": 3,
            "componentType": 5123,
            "count": 36,
            "type": "SCALAR"
        },
        {
            "bufferView": 4,
            "componentType": 5126,
            "count": 24,
            "max": [
                0,
                0.375,
                -0.3125
            ],
            "min": [
                -0.0625,
                0.3125,
                -0.375
            ],
            "type": "VEC3"
        },
        {
            "bufferView": 5,
            "componentType": 5126,
            "count": 24,
            "type": "VEC2"
        },
        {
            "bufferView": 6,
            "componentType": 5126,
            "count": 24,
            "type": "VEC3"
        },
        {
            "bufferView": 7,
            "componentType": 5126,
            "count": 24,
            "max": [
                0,
                0.375,
                -0.125
            ],
            "min": [
                -0.0625,
                0.3125,
                -0.1875
            ],
            "type": "VEC3"
        },
        {
            "bufferView": 8,
            "componentType": 5126,
            "count": 24,
            "type": "VEC2"
        },
        {
            "bufferView": 9,
            "componentType": 5126,
            "count": 24,
            "type": "VEC3"
        },
        {
            "bufferView": 10,
            "componentType": 5126,
            "count": 24,
            "max": [
                0.1875,
                0.375,
                0.1875
            ],
            "min": [
                -0.1875,
                0,
                -0.1875
            ],
            "type": "VEC3"
        },
        {
            "bufferView": 11,
            "componentType": 5126,
            "count": 24,
            "type": "VEC2"
        },
        {
            "bufferView": 12,
            "componentType": 5126,
            "count": 24,
            "type": "VEC3"
        }
    ],
    "bufferViews": [
        {
            "buffer": 0,
            "byteLength": 288,
            "byteOffset": 0,
            "target": 34962
        },
        {
            "buffer": 0,
            "byteLength": 192,
            "byteOffset": 288,
            "target": 34962
        },
        {
            "buffer": 0,
            "byteLength": 288,
            "byteOffset": 480,
            "target": 34962
        },
        {
            "buffer": 0,
            "byteLength": 72,
            "byteOffset": 768,
            "target": 34963
        },
        {
            "buffer": 0,
            "byteLength": 288,
            "byteOffset": 840,
            "target": 34962
        },
        {
            "buffer": 0,
            "byteLength": 192,
            "byteOffset": 1128,
            "target": 34962
        },
        {
            "buffer": 0,
            "byteLength": 288,
            "byteOffset": 1320,
            "target": 34962
        },
        {
            "buffer": 0,
            "byteLength": 288,
            "byteOffset": 1608,
            "target": 34962
        },
        {
            "buffer": 0,
            "byteLength": 192,
            "byteOffset": 1896,
            "target": 34962
        },
        {
            "buffer": 0,
            "byteLength": 288,
            "byteOffset": 2088,
            "target": 34962
        },
        {
            "buffer": 0,
            "byteLength": 288,
            "byteOffset": 2376,
            "target": 34962
        },
        {
            "buffer": 0,
            "byteLength": 192,
            "byteOffset": 2664,
            "target": 34962
        },
        {
            "buffer": 0,
            "byteLength": 288,
            "byteOffset": 2856,
            "target": 34962
        }
    ],
    "samplers": [
        {
            "magFilter": 9728,
            "minFilter": 9984,
            "wrapS": 33071,
            "wrapT": 33071
        }
    ],
    "buffers": [
        {
            "byteLength": 3144,
            "uri": "slime.bin"
        }
    ]
}